<svg width="147" height="56" viewBox="0 0 147 56" fill="none" xmlns="http://www.w3.org/2000/svg">
<path d="M10.044 14.636C10.044 13.772 10.008 13.154 9.936 12.782C9.864 12.398 9.732 12.146 9.54 12.026C9.348 11.894 9.024 11.828 8.568 11.828C8.04 11.828 7.65 11.954 7.398 12.206C7.158 12.446 7.008 12.788 6.948 13.232C6.888 13.676 6.858 14.342 6.858 15.23V20H5.58V14.636C5.58 13.76 5.544 13.136 5.472 12.764C5.412 12.392 5.286 12.146 5.094 12.026C4.902 11.894 4.578 11.828 4.122 11.828C3.594 11.828 3.204 11.96 2.952 12.224C2.712 12.476 2.562 12.83 2.502 13.286C2.442 13.73 2.412 14.378 2.412 15.23V20H1.134V10.82H2.25L2.322 12.098H2.43C2.574 11.654 2.808 11.306 3.132 11.054C3.468 10.802 3.954 10.676 4.59 10.676C5.25 10.676 5.736 10.784 6.048 11C6.372 11.216 6.594 11.582 6.714 12.098H6.822C6.966 11.642 7.212 11.294 7.56 11.054C7.908 10.802 8.4 10.676 9.036 10.676C9.684 10.676 10.17 10.796 10.494 11.036C10.818 11.264 11.034 11.624 11.142 12.116C11.262 12.608 11.322 13.298 11.322 14.186V20H10.044V14.636ZM13.5082 8.12V6.626H14.8582V8.12H13.5082ZM13.5442 20V10.82H14.8222V20H13.5442ZM21.7394 14.636C21.7394 13.772 21.6974 13.154 21.6134 12.782C21.5414 12.398 21.3974 12.146 21.1814 12.026C20.9654 11.894 20.6114 11.828 20.1194 11.828C19.5674 11.828 19.1654 11.96 18.9134 12.224C18.6614 12.488 18.5054 12.842 18.4454 13.286C18.3854 13.73 18.3554 14.378 18.3554 15.23V20H17.0774V10.82H18.1934L18.2654 12.098H18.3734C18.5174 11.642 18.7634 11.294 19.1114 11.054C19.4714 10.802 19.9814 10.676 20.6414 10.676C21.3134 10.676 21.8174 10.796 22.1534 11.036C22.5014 11.276 22.7294 11.642 22.8374 12.134C22.9574 12.614 23.0174 13.304 23.0174 14.204V20H21.7394V14.636ZM25.1976 8.12V6.626H26.5476V8.12H25.1976ZM25.2336 20V10.82H26.5116V20H25.2336ZM28.2448 20V18.992L32.1688 11.918H28.3888V10.82H33.7168V11.81L29.7748 18.902H33.7348V20H28.2448Z" fill="black"/>
<path d="M0 28H147" stroke="black"/>
<path d="M58.456 48.144C57.748 48.144 57.208 48.012 56.836 47.748C56.476 47.484 56.218 47.022 56.062 46.362C55.918 45.702 55.846 44.724 55.846 43.428C55.846 42.144 55.918 41.166 56.062 40.494C56.206 39.822 56.458 39.354 56.818 39.09C57.19 38.814 57.73 38.676 58.438 38.676C59.014 38.676 59.476 38.772 59.824 38.964C60.172 39.156 60.43 39.48 60.598 39.936H60.688V34.626H61.966V48H60.832L60.76 46.74H60.67C60.502 47.292 60.226 47.664 59.842 47.856C59.47 48.048 59.008 48.144 58.456 48.144ZM58.924 46.992C59.368 46.992 59.716 46.908 59.968 46.74C60.22 46.572 60.394 46.296 60.49 45.912C60.574 45.6 60.628 45.252 60.652 44.868C60.676 44.472 60.688 43.938 60.688 43.266C60.688 42.246 60.634 41.526 60.526 41.106C60.43 40.638 60.25 40.308 59.986 40.116C59.734 39.924 59.368 39.828 58.888 39.828C58.348 39.828 57.958 39.906 57.718 40.062C57.478 40.218 57.316 40.536 57.232 41.016C57.16 41.496 57.124 42.294 57.124 43.41C57.124 44.526 57.166 45.324 57.25 45.804C57.334 46.284 57.49 46.602 57.718 46.758C57.958 46.914 58.36 46.992 58.924 46.992ZM69.9435 43.824H65.2275C65.2275 44.796 65.2695 45.498 65.3535 45.93C65.4495 46.35 65.6415 46.644 65.9295 46.812C66.2295 46.968 66.7275 47.046 67.4235 47.046C68.2155 47.046 68.9715 46.98 69.6915 46.848V47.892C69.4155 47.964 69.0375 48.024 68.5575 48.072C68.0775 48.12 67.6155 48.144 67.1715 48.144C66.1995 48.144 65.4915 48.006 65.0475 47.73C64.6035 47.442 64.3095 46.98 64.1655 46.344C64.0215 45.708 63.9495 44.736 63.9495 43.428C63.9495 42.12 64.0095 41.154 64.1295 40.53C64.2495 39.894 64.5255 39.426 64.9575 39.126C65.4015 38.826 66.1095 38.676 67.0815 38.676C67.9935 38.676 68.6475 38.82 69.0435 39.108C69.4395 39.396 69.6855 39.846 69.7815 40.458C69.8895 41.07 69.9435 42.054 69.9435 43.41V43.824ZM67.0635 39.756C66.4995 39.756 66.0915 39.828 65.8395 39.972C65.5875 40.116 65.4195 40.398 65.3355 40.818C65.2635 41.226 65.2275 41.91 65.2275 42.87H68.7195V42.654C68.7195 41.778 68.6715 41.142 68.5755 40.746C68.4795 40.338 68.3175 40.074 68.0895 39.954C67.8735 39.822 67.5315 39.756 67.0635 39.756ZM74.1687 48.144C73.7607 48.144 73.3227 48.12 72.8547 48.072C72.3867 48.036 72.0027 47.988 71.7027 47.928V46.866C72.4707 46.998 73.2627 47.064 74.0787 47.064C74.5347 47.064 74.8767 47.004 75.1047 46.884C75.3327 46.764 75.4827 46.596 75.5547 46.38C75.6267 46.164 75.6627 45.87 75.6627 45.498C75.6627 45.054 75.6387 44.742 75.5907 44.562C75.5427 44.37 75.4587 44.244 75.3387 44.184C75.2307 44.112 75.0387 44.058 74.7627 44.022L72.9627 43.752C72.3867 43.668 71.9967 43.452 71.7927 43.104C71.5887 42.744 71.4867 42.162 71.4867 41.358C71.4867 40.638 71.6007 40.086 71.8287 39.702C72.0567 39.306 72.3687 39.036 72.7647 38.892C73.1727 38.748 73.6947 38.676 74.3307 38.676C74.7027 38.676 75.0987 38.7 75.5187 38.748C75.9387 38.796 76.2747 38.856 76.5267 38.928V39.972C76.2507 39.912 75.9087 39.864 75.5007 39.828C75.1047 39.78 74.7147 39.756 74.3307 39.756C73.7667 39.756 73.3587 39.858 73.1067 40.062C72.8547 40.266 72.7287 40.668 72.7287 41.268C72.7287 41.664 72.7527 41.958 72.8007 42.15C72.8487 42.33 72.9267 42.456 73.0347 42.528C73.1547 42.6 73.3467 42.654 73.6107 42.69L75.3567 42.924C75.7407 42.972 76.0407 43.074 76.2567 43.23C76.4847 43.374 76.6527 43.62 76.7607 43.968C76.8687 44.316 76.9227 44.814 76.9227 45.462C76.9227 46.47 76.7067 47.172 76.2747 47.568C75.8427 47.952 75.1407 48.144 74.1687 48.144ZM78.6859 36.12V34.626H80.0359V36.12H78.6859ZM78.7219 48V38.82H79.9999V48H78.7219ZM84.7031 51.582C83.8751 51.582 83.0711 51.54 82.2911 51.456V50.412C83.2271 50.46 83.9531 50.484 84.4691 50.484C85.1891 50.484 85.7051 50.394 86.0171 50.214C86.3411 50.034 86.5511 49.716 86.6471 49.26C86.7551 48.816 86.8091 48.096 86.8091 47.1V46.83H86.7191C86.5631 47.286 86.3111 47.61 85.9631 47.802C85.6151 47.994 85.1531 48.09 84.5771 48.09C83.8571 48.09 83.3111 47.958 82.9391 47.694C82.5791 47.43 82.3271 46.968 82.1831 46.308C82.0391 45.648 81.9671 44.676 81.9671 43.392C81.9671 42.108 82.0391 41.136 82.1831 40.476C82.3391 39.804 82.5971 39.336 82.9571 39.072C83.3291 38.808 83.8751 38.676 84.5951 38.676C85.1351 38.676 85.5911 38.778 85.9631 38.982C86.3471 39.174 86.6231 39.546 86.7911 40.098H86.8811L86.9531 38.82H88.0871V46.668C88.0871 47.988 88.0091 48.978 87.8531 49.638C87.7091 50.31 87.3971 50.802 86.9171 51.114C86.4491 51.426 85.7111 51.582 84.7031 51.582ZM85.0451 46.956C85.4891 46.956 85.8371 46.866 86.0891 46.686C86.3411 46.506 86.5151 46.218 86.6111 45.822C86.7431 45.318 86.8091 44.508 86.8091 43.392C86.8091 42.816 86.7971 42.354 86.7731 42.006C86.7611 41.646 86.7191 41.34 86.6471 41.088C86.5391 40.632 86.3591 40.308 86.1071 40.116C85.8551 39.924 85.5011 39.828 85.0451 39.828C84.4811 39.828 84.0791 39.906 83.8391 40.062C83.6111 40.218 83.4551 40.536 83.3711 41.016C83.2871 41.484 83.2451 42.276 83.2451 43.392C83.2451 44.508 83.2871 45.306 83.3711 45.786C83.4551 46.254 83.6111 46.566 83.8391 46.722C84.0791 46.878 84.4811 46.956 85.0451 46.956ZM95.0206 42.636C95.0206 41.772 94.9786 41.154 94.8946 40.782C94.8226 40.398 94.6786 40.146 94.4626 40.026C94.2466 39.894 93.8926 39.828 93.4006 39.828C92.8486 39.828 92.4466 39.96 92.1946 40.224C91.9426 40.488 91.7866 40.842 91.7266 41.286C91.6666 41.73 91.6366 42.378 91.6366 43.23V48H90.3586V38.82H91.4746L91.5466 40.098H91.6546C91.7986 39.642 92.0446 39.294 92.3926 39.054C92.7526 38.802 93.2626 38.676 93.9226 38.676C94.5946 38.676 95.0986 38.796 95.4346 39.036C95.7826 39.276 96.0106 39.642 96.1186 40.134C96.2386 40.614 96.2986 41.304 96.2986 42.204V48H95.0206V42.636ZM101.942 36.12V34.626H103.292V36.12H101.942ZM101.978 48V38.82H103.256V48H101.978ZM110.173 42.636C110.173 41.772 110.131 41.154 110.047 40.782C109.975 40.398 109.831 40.146 109.615 40.026C109.399 39.894 109.045 39.828 108.553 39.828C108.001 39.828 107.599 39.96 107.347 40.224C107.095 40.488 106.939 40.842 106.879 41.286C106.819 41.73 106.789 42.378 106.789 43.23V48H105.511V38.82H106.627L106.699 40.098H106.807C106.951 39.642 107.197 39.294 107.545 39.054C107.905 38.802 108.415 38.676 109.075 38.676C109.747 38.676 110.251 38.796 110.587 39.036C110.935 39.276 111.163 39.642 111.271 40.134C111.391 40.614 111.451 41.304 111.451 42.204V48H110.173V42.636ZM114.225 48V39.918H112.893V38.82H114.225V36.156H115.503V38.82H117.087V39.918H115.503V48H114.225ZM124.207 43.824H119.491C119.491 44.796 119.533 45.498 119.617 45.93C119.713 46.35 119.905 46.644 120.193 46.812C120.493 46.968 120.991 47.046 121.687 47.046C122.479 47.046 123.235 46.98 123.955 46.848V47.892C123.679 47.964 123.301 48.024 122.821 48.072C122.341 48.12 121.879 48.144 121.435 48.144C120.463 48.144 119.755 48.006 119.311 47.73C118.867 47.442 118.573 46.98 118.429 46.344C118.285 45.708 118.213 44.736 118.213 43.428C118.213 42.12 118.273 41.154 118.393 40.53C118.513 39.894 118.789 39.426 119.221 39.126C119.665 38.826 120.373 38.676 121.345 38.676C122.257 38.676 122.911 38.82 123.307 39.108C123.703 39.396 123.949 39.846 124.045 40.458C124.153 41.07 124.207 42.054 124.207 43.41V43.824ZM121.327 39.756C120.763 39.756 120.355 39.828 120.103 39.972C119.851 40.116 119.683 40.398 119.599 40.818C119.527 41.226 119.491 41.91 119.491 42.87H122.983V42.654C122.983 41.778 122.935 41.142 122.839 40.746C122.743 40.338 122.581 40.074 122.353 39.954C122.137 39.822 121.795 39.756 121.327 39.756ZM126.2 38.82H127.316L127.388 40.53H127.496C127.652 39.822 127.922 39.336 128.306 39.072C128.702 38.808 129.224 38.676 129.872 38.676V39.972C129.248 39.972 128.762 40.104 128.414 40.368C128.066 40.632 127.82 41.028 127.676 41.556C127.544 42.072 127.478 42.768 127.478 43.644V48H126.2V38.82ZM131.297 36.12V34.626H132.647V36.12H131.297ZM131.333 48V38.82H132.611V48H131.333ZM137.692 48.144C136.72 48.144 136.018 48.018 135.586 47.766C135.166 47.514 134.89 47.076 134.758 46.452C134.638 45.828 134.578 44.814 134.578 43.41C134.578 42.006 134.638 40.992 134.758 40.368C134.89 39.744 135.166 39.306 135.586 39.054C136.018 38.802 136.72 38.676 137.692 38.676C138.664 38.676 139.36 38.802 139.78 39.054C140.212 39.306 140.488 39.744 140.608 40.368C140.728 40.992 140.788 42.006 140.788 43.41C140.788 44.814 140.728 45.828 140.608 46.452C140.488 47.076 140.212 47.514 139.78 47.766C139.36 48.018 138.664 48.144 137.692 48.144ZM137.692 47.046C138.292 47.046 138.712 46.962 138.952 46.794C139.204 46.626 139.36 46.314 139.42 45.858C139.48 45.402 139.51 44.586 139.51 43.41C139.51 42.234 139.48 41.418 139.42 40.962C139.36 40.506 139.204 40.194 138.952 40.026C138.712 39.858 138.292 39.774 137.692 39.774C137.08 39.774 136.654 39.858 136.414 40.026C136.174 40.194 136.018 40.512 135.946 40.98C135.886 41.436 135.856 42.246 135.856 43.41C135.856 44.574 135.886 45.39 135.946 45.858C136.018 46.314 136.174 46.626 136.414 46.794C136.654 46.962 137.08 47.046 137.692 47.046ZM142.777 38.82H143.893L143.965 40.53H144.073C144.229 39.822 144.499 39.336 144.883 39.072C145.279 38.808 145.801 38.676 146.449 38.676V39.972C145.825 39.972 145.339 40.104 144.991 40.368C144.643 40.632 144.397 41.028 144.253 41.556C144.121 42.072 144.055 42.768 144.055 43.644V48H142.777V38.82Z" fill="black"/>
</svg>
